<svg version="1.1" viewBox="0.0 0.0 1000.0 547.6194225721785" fill="none" stroke="none" stroke-linecap="square" stroke-miterlimit="10" xmlns:xlink="http://www.w3.org/1999/xlink" xmlns="http://www.w3.org/2000/svg"><clipPath id="p.0"><path d="m0 0l1000.0 0l0 547.61945l-1000.0 0l0 -547.61945z" clip-rule="nonzero"/></clipPath><g clip-path="url(#p.0)"><path fill="#000000" fill-opacity="0.0" d="m0 0l1000.0 0l0 547.61945l-1000.0 0z" fill-rule="evenodd"/><path fill="#000000" d="m238.58792 362.50568l126.92914 0l-126.92914 -31.653534z" fill-rule="evenodd"/><path stroke="#000000" stroke-width="1.0" stroke-linejoin="round" stroke-linecap="butt" d="m238.58792 362.50568l126.92914 0l-126.92914 -31.653534z" fill-rule="evenodd"/><path fill="#000000" d="m238.62068 362.23187l125.98424 0l-125.98424 31.653534z" fill-rule="evenodd"/><path stroke="#000000" stroke-width="1.0" stroke-linejoin="round" stroke-linecap="butt" d="m238.62068 362.23187l125.98424 0l-125.98424 31.653534z" fill-rule="evenodd"/><path fill="#000000" d="m237.14961 216.77296l0 -180.94489l-44.283478 180.94489z" fill-rule="evenodd"/><path stroke="#000000" stroke-width="1.0" stroke-linejoin="round" stroke-linecap="butt" d="m237.14961 216.77296l0 -180.94489l-44.283478 180.94489z" fill-rule="evenodd"/><path fill="#000000" d="m237.12073 216.78609l0 44.850388l-44.25197 -44.850388z" fill-rule="evenodd"/><path stroke="#000000" stroke-width="1.0" stroke-linejoin="round" stroke-linecap="butt" d="m237.12073 216.78609l0 44.850388l-44.25197 -44.850388z" fill-rule="evenodd"/><path fill="#ffffff" d="m237.14961 216.77296l0 -180.94489l44.283463 180.94489z" fill-rule="evenodd"/><path stroke="#000000" stroke-width="1.0" stroke-linejoin="round" stroke-linecap="butt" d="m237.14961 216.77296l0 -180.94489l44.283463 180.94489z" fill-rule="evenodd"/><path fill="#ffffff" d="m237.17848 216.78609l0 44.850388l44.25197 -44.850388z" fill-rule="evenodd"/><path stroke="#000000" stroke-width="1.0" stroke-linejoin="round" stroke-linecap="butt" d="m237.17848 216.78609l0 44.850388l44.25197 -44.850388z" fill-rule="evenodd"/><path fill="#000000" d="m192.25853 261.0551l-180.94489 0l180.94489 44.283478z" fill-rule="evenodd"/><path stroke="#000000" stroke-width="1.0" stroke-linejoin="round" stroke-linecap="butt" d="m192.25853 261.0551l-180.94489 0l180.94489 44.283478z" fill-rule="evenodd"/><path fill="#000000" d="m192.27165 261.08398l44.850388 0l-44.850388 44.251984z" fill-rule="evenodd"/><path stroke="#000000" stroke-width="1.0" stroke-linejoin="round" stroke-linecap="butt" d="m192.27165 261.08398l44.850388 0l-44.850388 44.251984z" fill-rule="evenodd"/><path fill="#ffffff" d="m192.25853 261.0551l-180.94489 0l180.94489 -44.283463z" fill-rule="evenodd"/><path stroke="#000000" stroke-width="1.0" stroke-linejoin="round" stroke-linecap="butt" d="m192.25853 261.0551l-180.94489 0l180.94489 -44.283463z" fill-rule="evenodd"/><path fill="#ffffff" d="m192.27165 261.02625l44.850388 0l-44.850388 -44.25197z" fill-rule="evenodd"/><path stroke="#000000" stroke-width="1.0" stroke-linejoin="round" stroke-linecap="butt" d="m192.27165 261.02625l44.850388 0l-44.850388 -44.25197z" fill-rule="evenodd"/><path fill="#000000" d="m237.14961 305.8937l0 180.94489l44.283463 -180.94489z" fill-rule="evenodd"/><path stroke="#000000" stroke-width="1.0" stroke-linejoin="round" stroke-linecap="butt" d="m237.14961 305.8937l0 180.94489l44.283463 -180.94489z" fill-rule="evenodd"/><path fill="#000000" d="m237.17848 305.88058l0 -44.850403l44.25197 44.850403z" fill-rule="evenodd"/><path stroke="#000000" stroke-width="1.0" stroke-linejoin="round" stroke-linecap="butt" d="m237.17848 305.88058l0 -44.850403l44.25197 44.850403z" fill-rule="evenodd"/><path fill="#ffffff" d="m237.14961 305.8937l0 180.94489l-44.283478 -180.94489z" fill-rule="evenodd"/><path stroke="#000000" stroke-width="1.0" stroke-linejoin="round" stroke-linecap="butt" d="m237.14961 305.8937l0 180.94489l-44.283478 -180.94489z" fill-rule="evenodd"/><path fill="#ffffff" d="m237.12073 305.88058l0 -44.850403l-44.25197 44.850403z" fill-rule="evenodd"/><path stroke="#000000" stroke-width="1.0" stroke-linejoin="round" stroke-linecap="butt" d="m237.12073 305.88058l0 -44.850403l-44.25197 44.850403z" fill-rule="evenodd"/><path fill="#ffffff" d="m281.98557 261.06824l180.94489 0l-180.94489 44.283478z" fill-rule="evenodd"/><path stroke="#000000" stroke-width="1.0" stroke-linejoin="round" stroke-linecap="butt" d="m281.98557 261.06824l180.94489 0l-180.94489 44.283478z" fill-rule="evenodd"/><path fill="#ffffff" d="m281.97244 261.0971l-44.850403 0l44.850403 44.251984z" fill-rule="evenodd"/><path stroke="#000000" stroke-width="1.0" stroke-linejoin="round" stroke-linecap="butt" d="m281.97244 261.0971l-44.850403 0l44.850403 44.251984z" fill-rule="evenodd"/><path fill="#ffffff" d="m236.62466 260.61417l-43.356888 -43.37007l-182.15492 43.37007z" fill-rule="evenodd"/><path stroke="#000000" stroke-width="1.0" stroke-linejoin="round" stroke-linecap="butt" d="m236.62466 260.61417l-43.356888 -43.37007l-182.15492 43.37007z" fill-rule="evenodd"/><path fill="#ffffff" d="m236.62466 261.6496l-43.37007 43.356903l43.37007 182.1549z" fill-rule="evenodd"/><path stroke="#000000" stroke-width="1.0" stroke-linejoin="round" stroke-linecap="butt" d="m236.62466 261.6496l-43.37007 43.356903l43.37007 182.1549z" fill-rule="evenodd"/><path fill="#000000" fill-opacity="0.0" d="m88.28084 55.632545l777.6063 0l0 156.62991l-777.6063 0z" fill-rule="evenodd"/><path fill="#000000" d="m155.01521 188.79381q-10.375 0 -19.40625 -3.96875q-9.015625 -3.96875 -15.875 -11.0625q-6.84375 -7.109375 -10.6875 -16.390625q-3.828125 -9.28125 -3.828125 -19.90625q0 -10.500008 3.765625 -19.781258q3.78125 -9.28125 10.625 -16.3125q6.859375 -7.046875 15.875 -11.078125q9.03125 -4.03125 19.53125 -4.03125q9.203125 0 16.75 2.6875q7.5625 2.6875 14.609375 8.578125q1.140625 0.890625 1.328125 2.109375q0.203125 1.21875 -0.3125 2.3125q-0.515625 1.078125 -1.53125 1.59375q-0.265625 1.03125 -1.296875 1.546875q-1.015625 0.5 -2.359375 0.375q-1.34375 -0.125 -2.625 -1.15625q-4.984375 -4.34375 -10.875 -6.453125q-5.890625 -2.125 -13.6875 -2.125q-8.328125 0 -15.5625 3.328125q-7.234375 3.328125 -12.734375 9.09375q-5.5 5.765625 -8.640625 13.3125q-3.140625 7.5468826 -3.140625 16.000008q0 8.703125 3.140625 16.265625q3.140625 7.546875 8.640625 13.3125q5.5 5.75 12.734375 9.015625q7.234375 3.265625 15.5625 3.265625q7.03125 0 13.296875 -2.296875q6.28125 -2.3125 11.90625 -6.671875q1.546875 -1.28125 3.265625 -1.015625q1.734375 0.25 3.015625 1.53125q1.28125 1.28125 1.28125 3.328125q0 1.03125 -0.328125 1.859375q-0.3125 0.828125 -1.078125 1.71875q-6.53125 6.015625 -14.59375 8.515625q-8.0625 2.5 -16.765625 2.5zm157.43706 -1.28125q-2.046875 0 -3.53125 -1.46875q-1.46875 -1.46875 -1.46875 -3.515625l0 -94.98438l9.984375 0l0 94.98438q0 2.046875 -1.40625 3.515625q-1.40625 1.46875 -3.578125 1.46875zm-35.328125 -90.87501q-2.046875 0 -3.328125 -1.28125q-1.28125 -1.28125 -1.28125 -3.203125q0 -2.046875 1.28125 -3.328125q1.28125 -1.28125 3.328125 -1.28125l70.78125 0q2.046875 0 3.328125 1.28125q1.28125 1.28125 1.28125 3.328125q0 1.921875 -1.28125 3.203125q-1.28125 1.28125 -3.328125 1.28125l-70.78125 0zm128.64316 92.15626q-10.375 0 -19.40625 -3.96875q-9.015625 -3.96875 -15.875 -11.0625q-6.84375 -7.109375 -10.6875 -16.390625q-3.828125 -9.28125 -3.828125 -19.90625q0 -10.500008 3.765625 -19.781258q3.78125 -9.28125 10.625 -16.3125q6.859375 -7.046875 15.875 -11.078125q9.03125 -4.03125 19.53125 -4.03125q9.203125 0 16.75 2.6875q7.5625 2.6875 14.609375 8.578125q1.140625 0.890625 1.328125 2.109375q0.203125 1.21875 -0.3125 2.3125q-0.515625 1.078125 -1.53125 1.59375q-0.265625 1.03125 -1.296875 1.546875q-1.015625 0.5 -2.359375 0.375q-1.34375 -0.125 -2.625 -1.15625q-4.984375 -4.34375 -10.875 -6.453125q-5.890625 -2.125 -13.6875 -2.125q-8.328125 0 -15.5625 3.328125q-7.234375 3.328125 -12.734375 9.09375q-5.5 5.765625 -8.640625 13.3125q-3.140625 7.5468826 -3.140625 16.000008q0 8.703125 3.140625 16.265625q3.140625 7.546875 8.640625 13.3125q5.5 5.75 12.734375 9.015625q7.234375 3.265625 15.5625 3.265625q7.03125 0 13.296875 -2.296875q6.28125 -2.3125 11.90625 -6.671875q1.546875 -1.28125 3.265625 -1.015625q1.734375 0.25 3.015625 1.53125q1.28125 1.28125 1.28125 3.328125q0 1.03125 -0.328125 1.859375q-0.3125 0.828125 -1.078125 1.71875q-6.53125 6.015625 -14.59375 8.515625q-8.0625 2.5 -16.765625 2.5zm58.366516 -1.28125q-2.1875 0 -3.59375 -1.40625q-1.40625 -1.40625 -1.40625 -3.578125l0 -89.98438q0 -2.1875 1.40625 -3.59375q1.40625 -1.40625 3.59375 -1.40625q2.171875 0 3.578125 1.40625q1.40625 1.40625 1.40625 3.59375l0 39.921883l62.46872 0l0 -39.921883q0 -2.1875 1.40625 -3.59375q1.40625 -1.40625 3.578125 -1.40625q2.1875 0 3.59375 1.40625q1.40625 1.40625 1.40625 3.59375l0 89.98438q0 2.171875 -1.40625 3.578125q-1.40625 1.40625 -3.59375 1.40625q-2.171875 0 -3.578125 -1.40625q-1.40625 -1.40625 -1.40625 -3.578125l0 -41.09375l-62.46872 0l0 41.09375q0 2.171875 -1.40625 3.578125q-1.40625 1.40625 -3.578125 1.40625zm145.53598 0q-2.1875 0 -3.59375 -1.40625q-1.40625 -1.40625 -1.40625 -3.578125l0 -89.98438q0 -2.1875 1.40625 -3.59375q1.40625 -1.40625 3.59375 -1.40625q2.296875 0 3.828125 1.796875l61.1875 80.37501l0 -77.17188q0 -2.1875 1.40625 -3.59375q1.40625 -1.40625 3.59375 -1.40625q2.046875 0 3.515625 1.40625q1.46875 1.40625 1.46875 3.59375l0 89.98438q0 2.171875 -1.46875 3.578125q-1.46875 1.40625 -3.515625 1.40625q-1.03125 0 -2.0625 -0.375q-1.015625 -0.390625 -1.65625 -1.28125l-61.3125 -80.39063l0 77.06251q0 2.171875 -1.46875 3.578125q-1.46875 1.40625 -3.515625 1.40625zm145.53754 1.28125q-10.375 0 -19.40625 -3.96875q-9.015625 -3.96875 -15.875 -11.0625q-6.84375 -7.109375 -10.6875 -16.390625q-3.828125 -9.28125 -3.828125 -19.90625q0 -10.500008 3.765625 -19.781258q3.78125 -9.28125 10.625 -16.3125q6.859375 -7.046875 15.875 -11.078125q9.03125 -4.03125 19.53125 -4.03125q9.203125 0 16.75 2.6875q7.5625 2.6875 14.609375 8.578125q1.140625 0.890625 1.328125 2.109375q0.203125 1.21875 -0.3125 2.3125q-0.515625 1.078125 -1.53125 1.59375q-0.265625 1.03125 -1.296875 1.546875q-1.015625 0.5 -2.359375 0.375q-1.34375 -0.125 -2.625 -1.15625q-4.984375 -4.34375 -10.875 -6.453125q-5.890625 -2.125 -13.6875 -2.125q-8.328125 0 -15.5625 3.328125q-7.234375 3.328125 -12.734375 9.09375q-5.5 5.765625 -8.640625 13.3125q-3.140625 7.5468826 -3.140625 16.000008q0 8.703125 3.140625 16.265625q3.140625 7.546875 8.640625 13.3125q5.5 5.75 12.734375 9.015625q7.234375 3.265625 15.5625 3.265625q7.03125 0 13.296875 -2.296875q6.28125 -2.3125 11.90625 -6.671875q1.546875 -1.28125 3.265625 -1.015625q1.734375 0.25 3.015625 1.53125q1.28125 1.28125 1.28125 3.328125q0 1.03125 -0.265625 1.859375q-0.25 0.828125 -1.140625 1.71875q-6.53125 6.015625 -14.59375 8.515625q-8.0625 2.5 -16.765625 2.5zm32.765625 -14.59375l-9.734375 -2.046875l0 -25.734375l-19.96875 0q-2.171875 0 -3.578125 -1.265625q-1.40625 -1.28125 -1.40625 -3.203125q0 -1.921875 1.40625 -3.140625q1.40625 -1.21875 3.578125 -1.21875l24.703125 0q2.1875 0 3.59375 1.34375q1.40625 1.34375 1.40625 3.515625l0 31.75z" fill-rule="nonzero"/><path fill="#000000" fill-opacity="0.0" d="m356.1391 296.09186l777.60626 0l0 156.62991l-777.60626 0z" fill-rule="evenodd"/><path fill="#000000" d="m382.93597 427.97186q-2.1875 0 -3.59375 -1.40625q-1.40625 -1.40625 -1.40625 -3.578125l0 -89.984375q0 -2.1875 1.40625 -3.59375q1.40625 -1.40625 3.59375 -1.40625l60.03125 0q2.046875 0 3.515625 1.34375q1.46875 1.34375 1.46875 3.515625q0 1.921875 -1.46875 3.328125q-1.46875 1.40625 -3.515625 1.40625l-55.046875 0l0 35.328125l40.0625 0q2.1875 0 3.59375 1.421875q1.40625 1.40625 1.40625 3.453125q0 2.046875 -1.40625 3.453125q-1.40625 1.40625 -3.59375 1.40625l-40.0625 0l0 35.71875l55.046875 0q2.046875 0 3.515625 1.40625q1.46875 1.40625 1.46875 3.328125q0 2.171875 -1.46875 3.515625q-1.46875 1.34375 -3.515625 1.34375l-60.03125 0zm78.07602 0q-2.9375 0 -4.21875 -2.421875q-1.28125 -2.4375 -0.265625 -4.75l37.640625 -89.34375q1.40625 -3.453125 4.859375 -3.453125q3.328125 0 4.734375 3.453125l37.765656 89.46875q1.140625 2.4375 -0.328125 4.75q-1.46875 2.296875 -4.15625 2.296875q-1.53125 0 -2.75 -0.765625q-1.21875 -0.765625 -1.984375 -2.3125l-35.203156 -85.375l3.96875 0l-35.453125 85.375q-0.640625 1.546875 -1.859375 2.3125q-1.21875 0.765625 -2.75 0.765625zm8.453125 -23.8125l3.828125 -8.578125l51.96878 0l3.84375 8.578125l-59.640656 0zm201.85141 25.859375q-11.65625 0 -20.6875 -4.46875q-9.015625 -4.484375 -14.078125 -12.421875q-5.046875 -7.9375 -5.046875 -18.1875l0 -61.9375q0 -2.1875 1.40625 -3.59375q1.40625 -1.40625 3.59375 -1.40625q2.171875 0 3.578125 1.40625q1.40625 1.40625 1.40625 3.59375l0 61.9375q0 7.5625 3.78125 13.328125q3.78125 5.75 10.5625 9.015625q6.78125 3.265625 15.484375 3.265625q8.578125 0 15.234375 -3.265625q6.65625 -3.265625 10.421875 -9.015625q3.78125 -5.765625 3.78125 -13.328125l0 -61.9375q0 -2.1875 1.40625 -3.59375q1.40625 -1.40625 3.59375 -1.40625q2.296875 0 3.640625 1.40625q1.34375 1.40625 1.34375 3.59375l0 61.9375q0 10.25 -5.0625 18.1875q-5.046875 7.9375 -13.953125 12.421875q-8.890625 4.46875 -20.40625 4.46875zm70.01953 -2.046875q-2.1875 0 -3.59375 -1.40625q-1.40625 -1.40625 -1.40625 -3.578125l0 -89.984375q0 -2.1875 1.40625 -3.59375q1.40625 -1.40625 3.59375 -1.40625l23.9375 0q9.34375 0 16.625 3.90625q7.296875 3.90625 11.453125 10.890625q4.171875 6.96875 4.171875 16.046875q0 8.703125 -4.171875 15.5q-4.15625 6.78125 -11.453125 10.625q-7.28125 3.828125 -16.625 3.828125l-18.953125 0l0 34.1875q0 2.171875 -1.40625 3.578125q-1.40625 1.40625 -3.578125 1.40625zm53.5 0q-1.671875 0 -2.625 -0.640625q-0.953125 -0.640625 -1.734375 -1.921875l-24.5625 -39.171875l9.984375 -2.546875l22.90625 36.59375q1.921875 3.078125 0.703125 5.390625q-1.21875 2.296875 -4.671875 2.296875zm-48.515625 -48.765625l18.953125 0q6.515625 0 11.578125 -2.625q5.0625 -2.625 8.0 -7.234375q2.9375 -4.609375 2.9375 -10.5q0 -6.265625 -2.9375 -11.0625q-2.9375 -4.796875 -8.0 -7.484375q-5.0625 -2.703125 -11.578125 -2.703125l-18.953125 0l0 41.609375zm74.11963 48.765625q-2.1875 0 -3.59375 -1.40625q-1.40625 -1.40625 -1.40625 -3.578125l0 -89.984375q0 -2.1875 1.40625 -3.59375q1.40625 -1.40625 3.59375 -1.40625l60.03125 0q2.046875 0 3.515625 1.34375q1.46875 1.34375 1.46875 3.515625q0 1.921875 -1.46875 3.328125q-1.46875 1.40625 -3.515625 1.40625l-55.046875 0l0 35.328125l40.0625 0q2.1875 0 3.59375 1.421875q1.40625 1.40625 1.40625 3.453125q0 2.046875 -1.40625 3.453125q-1.40625 1.40625 -3.59375 1.40625l-40.0625 0l0 35.71875l55.046875 0q2.046875 0 3.515625 1.40625q1.46875 1.40625 1.46875 3.328125q0 2.171875 -1.46875 3.515625q-1.46875 1.34375 -3.515625 1.34375l-60.03125 0zm114.29474 1.28125q-8.1875 0 -15.171875 -2.359375q-6.96875 -2.375 -12.09375 -6.71875q-5.109375 -4.359375 -7.796875 -10.125q-1.03125 -2.046875 -0.078125 -3.765625q0.96875 -1.734375 3.265625 -2.375q1.796875 -0.515625 3.515625 0.390625q1.734375 0.890625 2.640625 2.6875q1.921875 3.703125 5.625 6.65625q3.71875 2.9375 8.828125 4.546875q5.125 1.59375 11.265625 1.59375q6.78125 0 12.03125 -2.234375q5.25 -2.25 8.25 -6.53125q3.015625 -4.296875 3.015625 -10.4375q0 -7.8125 -5.765625 -13.4375q-5.75 -5.640625 -18.03125 -7.171875q-14.984375 -1.796875 -23.4375 -9.28125q-8.4375 -7.484375 -8.4375 -18.359375q0 -7.8125 4.15625 -13.5625q4.15625 -5.765625 11.453125 -8.90625q7.296875 -3.140625 16.765625 -3.140625q7.046875 0 12.796875 2.25q5.765625 2.234375 10.046875 5.890625q4.296875 3.640625 6.984375 7.984375q1.28125 2.046875 0.828125 3.96875q-0.4375 1.921875 -2.234375 2.953125q-1.921875 0.890625 -3.90625 0.25q-1.984375 -0.640625 -3.0 -2.4375q-1.921875 -2.9375 -4.8125 -5.5625q-2.875 -2.625 -6.96875 -4.15625q-4.09375 -1.53125 -9.859375 -1.671875q-10.109375 0 -16.265625 4.296875q-6.140625 4.28125 -6.140625 12.46875q0 4.359375 2.296875 8.015625q2.3125 3.640625 7.625 6.265625q5.3125 2.625 14.28125 3.90625q16.0 2.296875 23.734375 9.796875q7.75 7.484375 7.75 19.515625q0 6.90625 -2.5 12.28125q-2.484375 5.375 -7.03125 9.03125q-4.546875 3.640625 -10.625 5.5625q-6.078125 1.921875 -13.0 1.921875z" fill-rule="nonzero"/><path fill="#000000" d="m281.98557 260.7362l180.94489 0l-180.94489 44.283478z" fill-rule="evenodd"/><path stroke="#000000" stroke-width="1.0" stroke-linejoin="round" stroke-linecap="butt" d="m281.98557 260.7362l180.94489 0l-180.94489 44.283478z" fill-rule="evenodd"/><path fill="#000000" d="m281.97244 260.7651l-44.850403 0l44.850403 44.251953z" fill-rule="evenodd"/><path stroke="#000000" stroke-width="1.0" stroke-linejoin="round" stroke-linecap="butt" d="m281.97244 260.7651l-44.850403 0l44.850403 44.251953z" fill-rule="evenodd"/><path fill="#000000" fill-opacity="0.0" d="m531.17847 195.42783l55.716553 0l0 156.62991l-55.716553 0z" fill-rule="evenodd"/><path fill="#000000" d="m540.30347 337.2922q-2.171875 0 -3.578125 -1.46875q-1.40625 -1.46875 -1.40625 -3.53125q0 -2.046875 1.40625 -3.515625q1.40625 -1.46875 3.578125 -1.46875l61.3125 0q2.046875 0 3.453125 1.46875q1.40625 1.46875 1.40625 3.515625q0 2.0625 -1.40625 3.53125q-1.40625 1.46875 -3.453125 1.46875l-61.3125 0z" fill-rule="nonzero"/><path fill="#000000" fill-opacity="0.0" d="m539.79266 195.42783l55.716553 0l0 156.62991l-55.716553 0z" fill-rule="evenodd"/><path fill="#000000" d="m548.91766 337.2922q-2.171875 0 -3.578125 -1.46875q-1.40625 -1.46875 -1.40625 -3.53125q0 -2.046875 1.40625 -3.515625q1.40625 -1.46875 3.578125 -1.46875l61.3125 0q2.046875 0 3.453125 1.46875q1.40625 1.46875 1.40625 3.515625q0 2.0625 -1.40625 3.53125q-1.40625 1.46875 -3.453125 1.46875l-61.3125 0z" fill-rule="nonzero"/><path fill="#000000" fill-opacity="0.0" d="m673.1575 15.874016l0 621.2913l-156.62988 0l0 -621.2913z" fill-rule="evenodd"/><path fill="#000000" d="m571.3556 34.60839q0 -2.046875 1.40625 -3.46875q1.40625 -1.40625 3.453125 -1.40625q2.1875 0 3.59375 1.40625q1.40625 1.421875 1.40625 3.46875l0 30.078125q0 2.171875 -1.40625 3.578125q-1.40625 1.40625 -3.59375 1.40625q-2.046875 0 -3.453125 -1.40625q-1.40625 -1.40625 -1.40625 -3.578125l0 -30.078125zm0 50.048004q0 -2.046875 1.40625 -3.46875q1.40625 -1.40625 3.453125 -1.40625q2.1875 0 3.59375 1.40625q1.40625 1.421875 1.40625 3.46875l0 30.078125q0 2.171875 -1.40625 3.578125q-1.40625 1.40625 -3.59375 1.40625q-2.046875 0 -3.453125 -1.40625q-1.40625 -1.40625 -1.40625 -3.578125l0 -30.078125zm0 50.047997q0 -2.046875 1.40625 -3.46875q1.40625 -1.40625 3.453125 -1.40625q2.1875 0 3.59375 1.40625q1.40625 1.421875 1.40625 3.46875l0 30.078125q0 2.171875 -1.40625 3.578125q-1.40625 1.40625 -3.59375 1.40625q-2.046875 0 -3.453125 -1.40625q-1.40625 -1.40625 -1.40625 -3.578125l0 -30.078125zm0 50.048004q0 -2.046875 1.40625 -3.46875q1.40625 -1.40625 3.453125 -1.40625q2.1875 0 3.59375 1.40625q1.40625 1.421875 1.40625 3.46875l0 30.078125q0 2.171875 -1.40625 3.578125q-1.40625 1.40625 -3.59375 1.40625q-2.046875 0 -3.453125 -1.40625q-1.40625 -1.40625 -1.40625 -3.578125l0 -30.078125zm0 50.048004q0 -2.046875 1.40625 -3.46875q1.40625 -1.40625 3.453125 -1.40625q2.1875 0 3.59375 1.40625q1.40625 1.421875 1.40625 3.46875l0 30.07814q0 2.171875 -1.40625 3.578125q-1.40625 1.40625 -3.59375 1.40625q-2.046875 0 -3.453125 -1.40625q-1.40625 -1.40625 -1.40625 -3.578125l0 -30.07814zm0 50.04802q0 -2.046875 1.40625 -3.46875q1.40625 -1.40625 3.453125 -1.40625q2.1875 0 3.59375 1.40625q1.40625 1.421875 1.40625 3.46875l0 30.078125q0 2.171875 -1.40625 3.578125q-1.40625 1.40625 -3.59375 1.40625q-2.046875 0 -3.453125 -1.40625q-1.40625 -1.40625 -1.40625 -3.578125l0 -30.078125zm0 50.048004q0 -2.046875 1.40625 -3.46875q1.40625 -1.40625 3.453125 -1.40625q2.1875 0 3.59375 1.40625q1.40625 1.421875 1.40625 3.46875l0 30.078125q0 2.171875 -1.40625 3.578125q-1.40625 1.40625 -3.59375 1.40625q-2.046875 0 -3.453125 -1.40625q-1.40625 -1.40625 -1.40625 -3.578125l0 -30.078125zm0 50.048004q0 -2.046875 1.40625 -3.46875q1.40625 -1.40625 3.453125 -1.40625q2.1875 0 3.59375 1.40625q1.40625 1.421875 1.40625 3.46875l0 30.078125q0 2.171875 -1.40625 3.578125q-1.40625 1.40625 -3.59375 1.40625q-2.046875 0 -3.453125 -1.40625q-1.40625 -1.40625 -1.40625 -3.578125l0 -30.078125zm0 50.048004q0 -2.046875 1.40625 -3.46875q1.40625 -1.40625 3.453125 -1.40625q2.1875 0 3.59375 1.40625q1.40625 1.421875 1.40625 3.46875l0 30.078125q0 2.171875 -1.40625 3.578125q-1.40625 1.40625 -3.59375 1.40625q-2.046875 0 -3.453125 -1.40625q-1.40625 -1.40625 -1.40625 -3.578125l0 -30.078125zm0 50.048004q0 -2.046875 1.40625 -3.46875q1.40625 -1.40625 3.453125 -1.40625q2.1875 0 3.59375 1.40625q1.40625 1.421875 1.40625 3.46875l0 30.078094q0 2.171875 -1.40625 3.578125q-1.40625 1.40625 -3.59375 1.40625q-2.046875 0 -3.453125 -1.40625q-1.40625 -1.40625 -1.40625 -3.578125l0 -30.078094z" fill-rule="nonzero"/><path fill="#ffffff" d="m238.10236 36.04462l0.21260071 223.98163l224.18898 -0.20996094l-179.54593 -42.6483z" fill-rule="evenodd"/><path stroke="#000000" stroke-width="2.0" stroke-linejoin="round" stroke-linecap="butt" d="m238.10236 36.04462l0.21260071 223.98163l224.18898 -0.20996094l-179.54593 -42.6483z" fill-rule="evenodd"/></g></svg>